<svg xmlns="http://www.w3.org/2000/svg" width="375" viewBox="0 0 375 375" height="375" version="1.0"><defs><clipPath id="a"><path d="M 98.085938 89.042969 L 295.335938 89.042969 L 295.335938 286.292969 L 98.085938 286.292969 Z M 98.085938 89.042969"/></clipPath></defs><g clip-path="url(#a)"><path fill="#6CD5CD" d="M 140.472656 89.042969 L 295.339844 89.042969 L 295.339844 286.296875 L 98.085938 286.296875 L 98.085938 256.496094 C 98.597656 257.152344 99.117188 257.808594 99.640625 258.457031 L 99.640625 284.738281 L 293.777344 284.738281 L 293.777344 90.597656 L 139.570312 90.597656 C 139.867188 90.097656 140.15625 89.597656 140.445312 89.09375 Z M 140.472656 89.042969" fill-rule="evenodd"/></g><g fill="#6CD5CD"><g><g><path d="M 15.035156 -32.453125 L 39.214844 -61.648438 L 67.296875 -11.058594 C 73.261719 -1.589844 70.953125 0 70.953125 0 L 87.261719 0 C 87.261719 0 82.964844 -1.589844 77 -11.058594 L 44.785156 -68.328125 L 73.898438 -103.488281 C 80.101562 -110.964844 88.453125 -113.988281 88.453125 -113.988281 L 75.25 -113.988281 C 75.25 -113.988281 76.839844 -109.292969 71.988281 -103.410156 L 15.035156 -34.601562 L 15.035156 -103.488281 C 15.035156 -112.953125 18.296875 -113.988281 18.296875 -113.988281 L 1.988281 -113.988281 C 1.988281 -113.988281 5.328125 -112.875 5.328125 -103.410156 L 5.328125 -11.058594 C 5.328125 -1.589844 1.988281 0 1.988281 0 L 18.296875 0 C 18.296875 0 15.035156 -1.589844 15.035156 -11.058594 Z M 15.035156 -32.453125" transform="translate(92.915 235.125)"/></g></g></g><g fill="#6CD5CD"><g><g><path d="M 44.226562 -55.679688 L 44.226562 -74.453125 C 44.226562 -74.453125 40.964844 -66.421875 25.058594 -66.421875 L 15.035156 -66.421875 L 15.035156 -103.566406 C 15.035156 -106.988281 15.433594 -109.375 15.988281 -110.886719 L 35.476562 -110.886719 C 72.703125 -110.886719 77.078125 -98.875 77.078125 -98.875 L 73.816406 -114.066406 L 1.988281 -114.066406 C 1.988281 -114.066406 5.328125 -112.953125 5.328125 -103.488281 L 5.328125 -11.136719 C 5.328125 -1.671875 1.988281 -0.078125 1.988281 -0.078125 L 18.296875 -0.078125 C 18.296875 -0.078125 15.035156 -1.671875 15.035156 -11.136719 L 15.035156 -63.714844 L 25.058594 -63.714844 C 40.964844 -63.714844 44.226562 -55.679688 44.226562 -55.679688 Z M 44.226562 -55.679688" transform="translate(204.03 235.125)"/></g></g></g></svg>